HIERARCHY
ROOT Hips
{
	OFFSET -0.001795 -0.223333 0.028219
	CHANNELS 6 Xposition Yposition Zposition Zrotation Yrotation Xrotation 
	JOINT LeftUpLeg
	{
		OFFSET 0.069520 -0.091406 -0.006815
		CHANNELS 3 Zrotation Yrotation Xrotation
		JOINT LeftLeg
		{
			OFFSET 0.034277 -0.375199 -0.004496
			CHANNELS 3 Zrotation Yrotation Xrotation
			JOINT LeftFoot
			{
				OFFSET -0.013596 -0.397961 -0.043693
				CHANNELS 3 Zrotation Yrotation Xrotation
				JOINT LeftToe
				{
					OFFSET 0.026358 -0.055791 0.119288
					CHANNELS 3 Zrotation Yrotation Xrotation
					End Site
					{
						OFFSET 0.000000 0.000000 0.000000
					}
				}
			}
		}
	}
	JOINT RightUpLeg
	{
		OFFSET -0.067670 -0.090522 -0.004320
		CHANNELS 3 Zrotation Yrotation Xrotation
		JOINT RightLeg
		{
			OFFSET -0.038290 -0.382569 -0.008850
			CHANNELS 3 Zrotation Yrotation Xrotation
			JOINT RightFoot
			{
				OFFSET 0.015774 -0.398415 -0.042312
				CHANNELS 3 Zrotation Yrotation Xrotation
				JOINT RightToe
				{
					OFFSET -0.025372 -0.048144 0.123348
					CHANNELS 3 Zrotation Yrotation Xrotation
					End Site
					{
						OFFSET 0.000000 0.000000 0.000000
					}
				}
			}
		}
	}
	JOINT Spine
	{
		OFFSET -0.002533 0.108963 -0.026696
		CHANNELS 3 Zrotation Yrotation Xrotation
		JOINT Spine1
		{
			OFFSET 0.005487 0.135180 0.001092
			CHANNELS 3 Zrotation Yrotation Xrotation
			JOINT Spine2
			{
				OFFSET 0.001457 0.052922 0.025425
				CHANNELS 3 Zrotation Yrotation Xrotation
				JOINT Neck
				{
					OFFSET -0.002778 0.213870 -0.042857
					CHANNELS 3 Zrotation Yrotation Xrotation
					JOINT Head
					{
						OFFSET 0.005152 0.064970 0.051349
						CHANNELS 3 Zrotation Yrotation Xrotation
						End Site
						{
							OFFSET 0.000000 0.000000 0.000000
						}
					}
				}
				JOINT LeftShoulder
				{
					OFFSET 0.078845 0.121749 -0.034090
					CHANNELS 3 Zrotation Yrotation Xrotation
					JOINT LeftArm
					{
						OFFSET 0.090977 0.030469 -0.008868
						CHANNELS 3 Zrotation Yrotation Xrotation
						JOINT LeftForeArm
						{
							OFFSET 0.259612 -0.012772 -0.027456
							CHANNELS 3 Zrotation Yrotation Xrotation
							JOINT LeftHand
							{
								OFFSET 0.249234 0.008986 -0.001171
								CHANNELS 3 Zrotation Yrotation Xrotation
								End Site
								{
									OFFSET 0.000000 0.000000 0.000000
								}
							}
						}
					}
				}
				JOINT RightShoulder
				{
					OFFSET -0.081759 0.118833 -0.038615
					CHANNELS 3 Zrotation Yrotation Xrotation
					JOINT RightArm
					{
						OFFSET -0.096012 0.032551 -0.009143
						CHANNELS 3 Zrotation Yrotation Xrotation
						JOINT RightForeArm
						{
							OFFSET -0.253742 -0.013329 -0.021401
							CHANNELS 3 Zrotation Yrotation Xrotation
							JOINT RightHand
							{
								OFFSET -0.255298 0.007772 -0.005559
								CHANNELS 3 Zrotation Yrotation Xrotation
								End Site
								{
									OFFSET 0.000000 0.000000 0.000000
								}
							}
						}
					}
				}
			}
		}
	}
}
MOTION
Frames: 17
Frame Time: 0.050000
0.000000 0.935757 0.000000 -0.748435 -19.710360 -0.755804 6.081406 0.130412 -2.868380 -7.098834 5.292916 34.393328 11.842529 21.804829 16.666711 0.000000 0.000000 0.000000 -0.981636 1.654403 -15.032959 4.479857 0.553797 18.916206 -6.710008 -18.241897 8.383566 0.000000 0.000000 0.000000 9.017472 -1.150723 12.245399 -0.850226 0.528251 -26.139548 -4.929178 3.800043 25.513502 8.014172 -3.935626 -28.583653 0.000000 0.000000 0.000000 -0.505255 -18.094105 6.658251 -37.770402 -34.584076 4.877885 163.300353 -75.483595 -145.632712 0.000000 0.000000 0.000000 9.790817 4.247060 0.197660 48.203567 28.959341 4.351530 -172.682078 82.229749 -169.504390 0.000000 0.000000 0.000000 
-0.007564 0.939784 0.013795 -1.532027 -20.963710 -0.307206 6.495531 0.091388 -7.224782 -9.232574 7.150464 36.568577 13.931150 25.055377 14.839103 0.000000 0.000000 0.000000 0.555460 1.436782 -12.753359 3.372395 0.618858 16.283212 -5.873660 -16.652959 8.071208 0.000000 0.000000 0.000000 9.313697 -1.207953 12.888604 0.138309 0.513289 -28.906320 -4.499743 4.974653 27.040985 7.312631 -3.267575 -30.852095 0.000000 0.000000 0.000000 2.209104 -17.350353 5.757145 -40.879830 -35.923412 6.009936 167.723316 -73.667323 -149.190373 0.000000 0.000000 0.000000 8.400574 5.091012 0.767530 47.652010 30.938283 4.854537 -161.111396 82.295321 -156.012012 0.000000 0.000000 0.000000 
-0.014097 0.942737 0.027063 -0.477597 -20.901909 -1.340547 6.149874 0.043641 -11.462720 -10.144979 7.840018 37.525314 13.836133 25.250299 12.283137 0.000000 0.000000 0.000000 -0.426802 0.972709 -9.574917 3.262974 0.429758 13.727767 -5.698680 -16.021153 7.445682 0.000000 0.000000 0.000000 8.865394 -1.120372 12.597726 -0.005802 0.375346 -26.721542 -3.925127 5.764388 25.796323 7.079385 -3.047900 -30.293263 0.000000 0.000000 0.000000 0.224766 -17.644367 6.288116 -39.027601 -36.435814 5.725079 168.901534 -70.223645 -150.430587 0.000000 0.000000 0.000000 9.220284 5.070593 0.774418 46.257042 32.507380 5.435523 -155.720369 82.468744 -149.635598 0.000000 0.000000 0.000000 
-0.020022 0.944086 0.040558 0.205508 -20.699096 -2.041945 5.261832 -0.092234 -13.806949 -10.501431 6.846952 32.912278 14.778678 26.782624 11.415123 0.000000 0.000000 0.000000 -1.208550 0.689299 -7.132042 3.434229 0.278085 12.082605 -5.720458 -15.772910 6.860937 0.000000 0.000000 0.000000 9.140438 -1.192090 13.533702 0.007638 0.392209 -27.028679 -4.590233 7.210713 25.810196 6.293254 -2.213794 -31.639001 0.000000 0.000000 0.000000 1.154712 -16.877198 5.770722 -40.389549 -37.735048 6.422182 173.713718 -67.530547 -156.958696 0.000000 0.000000 0.000000 9.980004 4.024002 0.492212 45.469085 34.479096 6.091996 -153.252339 81.784521 -145.476691 0.000000 0.000000 0.000000 
-0.025607 0.946003 0.054316 0.733005 -20.921539 -2.889237 4.578384 -0.190222 -15.433641 -10.699701 5.577247 26.559235 14.642013 25.303319 15.781881 0.000000 0.000000 0.000000 -1.704039 0.448748 -4.511232 3.296584 0.197520 10.442252 -5.494353 -15.168617 6.547155 0.000000 0.000000 0.000000 9.073677 -1.208054 14.357357 -0.920629 0.580483 -26.940217 -3.604639 8.011215 26.164990 6.364771 -2.122273 -31.966025 0.000000 0.000000 0.000000 1.523318 -15.586330 5.249864 -41.102754 -37.923768 6.609427 174.159808 -66.517118 -157.646428 0.000000 0.000000 0.000000 9.351151 4.565881 0.872259 45.082490 35.554050 6.411356 -153.813409 81.117440 -145.312883 0.000000 0.000000 0.000000 
-0.031019 0.946540 0.068726 0.897293 -20.615527 -2.603559 4.665970 -0.187083 -15.644447 -12.128462 4.453901 17.693041 21.911878 29.362736 36.355537 0.000000 0.000000 0.000000 -2.035869 0.314568 -2.678898 3.526492 0.050231 8.387755 -5.552210 -15.113922 6.277740 0.000000 0.000000 0.000000 8.915873 -1.212581 14.367556 -1.074085 0.667966 -27.816998 -2.284748 9.671899 26.659106 6.479977 -1.868104 -32.213907 0.000000 0.000000 0.000000 0.931320 -15.582316 5.326568 -43.015824 -37.040117 6.408077 176.812529 -65.268145 -161.934099 0.000000 0.000000 0.000000 9.748748 3.283234 0.538504 43.874709 35.610135 6.184384 -179.487465 81.643657 -174.288330 0.000000 0.000000 0.000000 
-0.035834 0.945788 0.083818 1.521478 -19.553447 -3.457335 3.614282 -0.407652 -14.510662 -13.927004 4.468951 14.511176 31.911871 31.526197 66.394454 0.000000 0.000000 0.000000 -3.094415 0.183157 0.212871 4.230973 -0.121630 6.593540 -6.002302 -15.677889 5.787850 0.000000 0.000000 0.000000 8.135146 -1.211575 15.719744 -0.327393 0.590288 -28.588987 -3.130314 10.097110 26.934842 8.403391 -2.723976 -32.242582 0.000000 0.000000 0.000000 0.002926 -14.629042 5.107201 -44.603090 -35.192456 5.821360 -176.657554 -67.058399 -172.820342 0.000000 0.000000 0.000000 10.734996 2.731432 0.391326 42.791275 36.088619 6.137725 163.526155 80.556996 166.197226 0.000000 0.000000 0.000000 
-0.040114 0.942534 0.099888 1.380312 -18.905829 -3.425512 3.665028 -0.412965 -13.958760 -17.590937 6.316993 17.472782 38.838843 31.595151 86.068091 0.000000 0.000000 0.000000 -3.595833 0.154522 1.414464 5.318703 -0.251397 6.612254 -6.479690 -16.216549 4.783968 0.000000 0.000000 0.000000 7.751752 -1.188176 15.713117 -1.416053 0.691727 -26.511841 -1.614516 10.849480 24.961410 8.132250 -2.442823 -31.013957 0.000000 0.000000 0.000000 -1.273544 -15.421160 5.497196 -45.514235 -32.784529 5.060728 -164.053360 -69.519174 167.629637 0.000000 0.000000 0.000000 11.860207 2.718133 0.469223 41.418165 33.626649 5.205794 137.291624 78.702685 134.631276 0.000000 0.000000 0.000000 
-0.043378 0.938217 0.117097 0.479992 -19.403369 -3.387851 4.181812 -0.303950 -13.252632 -20.412396 8.860174 22.663326 36.272145 29.288084 97.299416 0.000000 0.000000 0.000000 -3.136875 0.091215 2.098149 5.769310 -0.264726 7.911807 -6.570136 -15.932846 3.456678 0.000000 0.000000 0.000000 7.995167 -1.200737 15.640537 -0.973678 0.528992 -25.464539 -1.673994 11.015024 25.115335 8.256580 -2.509297 -31.140179 0.000000 0.000000 0.000000 -1.814408 -13.821998 5.001627 -46.903388 -28.470455 3.479332 -152.042921 -70.991666 151.639892 0.000000 0.000000 0.000000 12.499494 2.737364 0.431273 40.697009 32.615289 4.697510 118.672894 77.198120 111.882563 0.000000 0.000000 0.000000 
-0.045154 0.933654 0.135506 0.478979 -18.863003 -3.674652 3.928249 -0.328953 -11.484421 -23.354810 11.316210 26.365673 38.416290 33.006473 78.458410 0.000000 0.000000 0.000000 -3.858863 0.129035 2.478437 6.665140 -0.342050 10.078251 -7.131053 -16.680679 2.306548 0.000000 0.000000 0.000000 7.679372 -1.173149 15.600485 -1.055022 0.527746 -24.965055 -1.624990 11.780859 24.551466 9.365089 -2.864646 -31.344590 0.000000 0.000000 0.000000 -3.103503 -13.842518 5.070506 -46.962259 -23.812944 1.538866 -129.489436 -71.746940 122.114562 0.000000 0.000000 0.000000 14.432661 2.001170 0.179013 40.064131 29.478162 3.553883 102.108883 71.786533 88.703932 0.000000 0.000000 0.000000 
-0.045117 0.931266 0.153809 0.401707 -17.893543 -4.103486 4.033380 -0.292636 -9.893972 -23.774446 11.394304 26.632162 37.652705 32.864985 77.642480 0.000000 0.000000 0.000000 -4.698410 0.189647 2.264882 7.502404 -0.418541 13.617918 -7.180463 -16.890926 2.384158 0.000000 0.000000 0.000000 7.329295 -1.136589 15.328691 -1.610734 0.670588 -24.814992 -1.556305 11.352290 24.732371 10.237807 -3.394328 -30.879378 0.000000 0.000000 0.000000 -5.831028 -13.102964 5.013014 -45.935999 -18.856405 -0.532812 -107.280171 -69.909014 94.224618 0.000000 0.000000 0.000000 16.402646 1.531707 -0.102402 40.883192 26.378250 2.587253 89.072036 66.927379 70.598896 0.000000 0.000000 0.000000 
-0.043778 0.930896 0.170536 0.782233 -16.260415 -4.062624 3.041549 -0.394242 -8.579560 -23.417749 10.742021 26.209406 37.262764 32.917980 76.694802 0.000000 0.000000 0.000000 -5.813041 0.284791 1.263111 7.948670 -0.485233 16.895318 -7.165031 -17.467845 4.267535 0.000000 0.000000 0.000000 6.918424 -1.101652 14.798406 -2.137262 0.838149 -24.926296 -1.900977 11.552619 24.921115 11.381566 -3.841600 -30.865641 0.000000 0.000000 0.000000 -6.513012 -12.362550 4.648484 -45.242801 -14.712284 -2.105851 -94.886152 -66.732972 77.133219 0.000000 0.000000 0.000000 17.673018 0.215929 -0.578022 42.812468 22.831038 1.486826 83.265319 61.982015 60.991320 0.000000 0.000000 0.000000 
-0.041730 0.933217 0.184217 0.695817 -14.701984 -3.798806 2.624338 -0.411173 -7.611758 -22.975144 10.084284 25.832592 36.336682 32.721534 75.661911 0.000000 0.000000 0.000000 -6.836120 0.382299 -0.605311 8.346155 -0.551702 20.779573 -5.665197 -15.758810 8.532186 0.000000 0.000000 0.000000 6.352597 -1.069313 14.566292 -2.568955 0.972783 -25.091319 -1.798200 11.633134 24.901276 11.275304 -3.746379 -30.182820 0.000000 0.000000 0.000000 -6.814071 -11.007249 4.004858 -44.743481 -10.658315 -3.539329 -90.665615 -62.830219 68.288358 0.000000 0.000000 0.000000 18.449430 -0.850101 -0.932690 43.375725 20.404951 0.593643 80.566309 59.517449 56.803288 0.000000 0.000000 0.000000 
-0.040018 0.935782 0.194239 0.699517 -12.634497 -3.553733 1.841044 -0.463093 -6.949266 -21.890044 9.129202 25.737832 35.635766 32.645759 74.422629 0.000000 0.000000 0.000000 -7.419021 0.431305 -2.505495 7.524555 -0.388689 23.858857 -3.152260 -12.890227 14.938121 0.000000 0.000000 0.000000 6.045052 -1.065855 14.277801 -3.311096 1.196876 -25.104013 -1.671928 11.647441 24.945969 11.798542 -3.959691 -29.456381 0.000000 0.000000 0.000000 -6.828935 -10.286609 3.566114 -42.435680 -8.209769 -4.168431 -90.716150 -61.514725 65.947036 0.000000 0.000000 0.000000 18.400243 -1.523497 -0.988578 43.361767 19.613301 0.252086 79.644536 59.399848 56.510636 0.000000 0.000000 0.000000 
-0.039122 0.938778 0.200607 0.592222 -10.127354 -3.386684 1.255303 -0.457781 -6.018253 -20.655159 7.987539 25.200178 35.270904 32.790701 72.765561 0.000000 0.000000 0.000000 -7.534854 0.434430 -3.821372 6.648094 -0.324980 24.136305 -1.352856 -12.535622 26.964407 0.000000 0.000000 0.000000 5.618823 -1.089547 14.559886 -3.434445 1.275903 -25.342507 -2.037329 12.052803 24.846850 12.588816 -4.109836 -29.420348 0.000000 0.000000 0.000000 -5.773887 -9.803818 3.177974 -41.351408 -8.132907 -4.075689 -91.318664 -61.703362 65.484630 0.000000 0.000000 0.000000 18.037125 -2.031712 -0.816294 43.175234 19.940167 0.297508 81.332459 61.440033 60.841117 0.000000 0.000000 0.000000 
-0.039112 0.939960 0.203855 0.567652 -7.158616 -2.789156 0.681627 -0.501273 -5.957153 -19.295220 6.881550 25.067107 35.163453 33.114643 70.791382 0.000000 0.000000 0.000000 -7.662601 0.418019 -4.641076 5.576016 -0.291295 22.255071 -2.764548 0.771324 -12.393218 0.000000 0.000000 0.000000 5.131777 -1.092863 14.422815 -3.538270 1.352950 -25.476286 -2.567876 12.494445 24.724500 12.672849 -3.886480 -28.894132 0.000000 0.000000 0.000000 -4.886258 -9.545209 2.898695 -39.231026 -8.882583 -3.606363 -93.255833 -63.534298 67.674488 0.000000 0.000000 0.000000 17.491884 -1.548458 -0.065070 42.825132 22.018522 0.976371 79.097788 65.842679 64.215814 0.000000 0.000000 0.000000 
-0.039941 0.940325 0.204532 0.753802 -3.530864 -2.305725 0.093080 -0.572303 -6.317778 -17.895387 5.848442 25.580575 34.654820 33.343205 68.304429 0.000000 0.000000 0.000000 -7.648263 0.373226 -5.116457 4.472450 -0.268418 19.312928 -2.486672 4.201124 -16.076591 0.000000 0.000000 0.000000 4.524291 -1.084530 14.291673 -3.335482 1.365146 -25.546338 -2.999452 12.923962 24.577172 12.793706 -3.466809 -29.216893 0.000000 0.000000 0.000000 -4.128264 -9.449093 2.690828 -38.699784 -10.462686 -3.060257 -94.569944 -65.920779 69.850114 0.000000 0.000000 0.000000 16.971550 -1.061935 0.717721 42.454573 24.333515 1.771124 73.535694 69.831881 64.135166 0.000000 0.000000 0.000000 
